# xmcd
#
# Track frame offsets: 
#        150
#        23812
#        44255
#        66627
#        87475
#        107627
#        126257
#        144795
#        165285
#
# Disc length: 2461 seconds
#
# Revision: 0
# Processed by: cddbd v1.5.2PL0 Copyright (c) Steve Scherf et al.
# Submitted via: ExactAudioCopy v1.3
#
DISCID=74099b09
DTITLE=桑田りん - GALA
DYEAR=1986
DGENRE=JPop
TTITLE0=まぼろし
TTITLE1=流行色
TTITLE2=素敵なBEAT TIME
TTITLE3=ラプソディー
TTITLE4=八月の濡れた砂
TTITLE5=花まつり
TTITLE6=NO！NO！NO！
TTITLE7=ぼくら
TTITLE8=100年たっても
EXTD=
EXTT0=
EXTT1=
EXTT2=
EXTT3=
EXTT4=
EXTT5=
EXTT6=
EXTT7=
EXTT8=
PLAYORDER=
